<svg width="46" height="67" viewBox="0 0 46 67" fill="none" xmlns="http://www.w3.org/2000/svg">
<path d="M26 3C26 1.34315 24.6569 1.08042e-07 23 0C21.3431 -1.08042e-07 20 1.34315 20 3L26 3ZM20.8787 66.1213C22.0502 67.2929 23.9497 67.2929 25.1213 66.1213L44.2132 47.0294C45.3848 45.8579 45.3848 43.9584 44.2132 42.7868C43.0416 41.6152 41.1421 41.6152 39.9706 42.7868L23 59.7574L6.02943 42.7868C4.85786 41.6152 2.95837 41.6152 1.78679 42.7868C0.615221 43.9584 0.615221 45.8579 1.78679 47.0294L20.8787 66.1213ZM20 3L20 64L26 64L26 3L20 3Z" fill="white"/>
</svg>
