<svg width="39" height="50" viewBox="0 0 39 50" fill="none" xmlns="http://www.w3.org/2000/svg">
<path d="M10.3047 0H15.6755V2.24583H12.5505V4.49167H15.6755V6.7375H10.3047V0ZM16.7484 0H22.1214V1.95417H18.9964V2.34375H22.1214V6.83542H16.7484V4.78542H19.8734V4.39375H16.7484V0ZM23.1964 0H28.5651V1.95417H25.4401V2.34375H28.5651V6.83542H23.1964V4.78542H26.3214V4.39375H23.1964V0Z" fill="white"/>
<path fill-rule="evenodd" clip-rule="evenodd" d="M19.657 49.9999L5.19036 45.9833L0.925781 9.82703H38.4258L34.1633 45.9791L19.657 49.9999ZM9.35703 26.1937L9.75495 30.627H25.1237L24.6091 36.377L19.6633 37.7145H19.6591L14.7216 36.3812L14.4049 32.8458H9.95286L10.5737 39.8083L19.657 42.3291L28.7549 39.8083L29.8633 27.3833L29.9716 26.1937L30.7716 17.2166H8.55911L8.96328 21.652H25.9133L25.5091 26.1937H9.35703Z" fill="white"/>
</svg>
