<svg width="42" height="41" viewBox="0 0 42 41" fill="none" xmlns="http://www.w3.org/2000/svg">
<path d="M20.8333 0C18.0975 0 15.3884 0.53887 12.8608 1.58584C10.3331 2.63282 8.0365 4.16739 6.10194 6.10194C2.19493 10.0089 0 15.308 0 20.8333C0 30.0417 5.97917 37.8542 14.25 40.625C15.2917 40.7917 15.625 40.1458 15.625 39.5833V36.0625C9.85417 37.3125 8.625 33.2708 8.625 33.2708C7.66667 30.8542 6.3125 30.2083 6.3125 30.2083C4.41667 28.9167 6.45833 28.9583 6.45833 28.9583C8.54167 29.1042 9.64583 31.1042 9.64583 31.1042C11.4583 34.2708 14.5208 33.3333 15.7083 32.8333C15.8958 31.4792 16.4375 30.5625 17.0208 30.0417C12.3958 29.5208 7.54167 27.7292 7.54167 19.7917C7.54167 17.4792 8.33333 15.625 9.6875 14.1458C9.47917 13.625 8.75 11.4583 9.89583 8.64583C9.89583 8.64583 11.6458 8.08333 15.625 10.7708C17.2708 10.3125 19.0625 10.0833 20.8333 10.0833C22.6042 10.0833 24.3958 10.3125 26.0417 10.7708C30.0208 8.08333 31.7708 8.64583 31.7708 8.64583C32.9167 11.4583 32.1875 13.625 31.9792 14.1458C33.3333 15.625 34.125 17.4792 34.125 19.7917C34.125 27.75 29.25 29.5 24.6042 30.0208C25.3542 30.6667 26.0417 31.9375 26.0417 33.875V39.5833C26.0417 40.1458 26.375 40.8125 27.4375 40.625C35.7083 37.8333 41.6667 30.0417 41.6667 20.8333C41.6667 18.0975 41.1278 15.3884 40.0808 12.8608C39.0339 10.3331 37.4993 8.0365 35.5647 6.10194C33.6302 4.16739 31.3335 2.63282 28.8059 1.58584C26.2783 0.53887 23.5692 0 20.8333 0Z" fill="white"/>
</svg>
