<svg width="38" height="46" viewBox="0 0 38 46" fill="none" xmlns="http://www.w3.org/2000/svg">
<path fill-rule="evenodd" clip-rule="evenodd" d="M31.125 0.805963L31.5208 1.04971L35.6458 3.79971C36.1676 4.14789 36.604 4.60937 36.9225 5.14974C37.2411 5.69012 37.4335 6.29543 37.4854 6.92055L37.5 7.26638V33.3893C37.4999 34.3831 37.1446 35.3442 36.4983 36.099C35.8519 36.8539 34.957 37.3529 33.975 37.506L33.6521 37.5435L9.63333 39.3914C8.994 39.4405 8.35195 39.3415 7.75717 39.1019C7.16239 38.8623 6.63093 38.4887 6.20417 38.0101L5.98125 37.7372L1.25 31.4289C0.530961 30.4699 0.10284 29.3244 0.0166665 28.1289L0 27.6789V5.99763C7.04096e-05 5.00382 0.355355 4.04276 1.00174 3.28788C1.64813 2.533 2.54304 2.03401 3.525 1.88096L3.84792 1.84346L27.5729 0.0184626C28.8081 -0.0766834 30.0438 0.19742 31.1229 0.805963H31.125ZM33.3333 10.4851L10.4167 12.2476V35.1518L33.3333 33.3893V10.4851ZM27.0833 13.4435C27.6359 13.4435 28.1658 13.663 28.5565 14.0537C28.9472 14.4444 29.1667 14.9743 29.1667 15.5268V30.1101C29.1667 30.6627 28.9472 31.1926 28.5565 31.5833C28.1658 31.974 27.6359 32.1935 27.0833 32.1935H26.0417C25.6857 32.1936 25.3357 32.1025 25.025 31.9289C24.7142 31.7553 24.4532 31.505 24.2667 31.2018L18.75 22.2351V31.1518C18.75 31.7043 18.5305 32.2342 18.1398 32.6249C17.7491 33.0156 17.2192 33.2351 16.6667 33.2351C16.1141 33.2351 15.5842 33.0156 15.1935 32.6249C14.8028 32.2342 14.5833 31.7043 14.5833 31.1518V16.5685C14.5833 16.0159 14.8028 15.486 15.1935 15.0953C15.5842 14.7046 16.1141 14.4851 16.6667 14.4851H17.7083C18.0643 14.485 18.4143 14.5761 18.725 14.7497C19.0358 14.9233 19.2968 15.1736 19.4833 15.4768L25 24.4414V15.5268C25 14.9743 25.2195 14.4444 25.6102 14.0537C26.0009 13.663 26.5308 13.4435 27.0833 13.4435ZM27.8917 4.17263L6.76042 5.79763L9.12917 8.16638L32.0417 6.40596L29.2083 4.51638C28.8203 4.25765 28.3567 4.1366 27.8917 4.17263Z" fill="white"/>
</svg>
