<svg width="44" height="44" viewBox="0 0 44 44" fill="none" xmlns="http://www.w3.org/2000/svg">
<path d="M21.875 14.5938C17.8438 14.5938 14.5938 17.875 14.5938 21.875C14.5938 25.875 17.875 29.1562 21.875 29.1562C25.875 29.1562 29.1562 25.875 29.1562 21.875C29.1562 17.875 25.875 14.5938 21.875 14.5938ZM43.75 21.875C43.75 18.8438 43.75 15.875 43.5938 12.8438C43.4375 9.34375 42.625 6.21875 40.0625 3.6875C37.5 1.125 34.4063 0.3125 30.9063 0.15625C27.875 -1.49012e-07 24.9062 0 21.875 0C18.8438 0 15.875 -1.49012e-07 12.8438 0.15625C9.34375 0.3125 6.21875 1.125 3.6875 3.6875C1.125 6.25 0.3125 9.34375 0.15625 12.8438C-1.49012e-07 15.875 0 18.8438 0 21.875C0 24.9062 -1.49012e-07 27.875 0.15625 30.9063C0.3125 34.4063 1.125 37.5312 3.6875 40.0625C6.25 42.625 9.34375 43.4375 12.8438 43.5938C15.875 43.75 18.8438 43.75 21.875 43.75C24.9062 43.75 27.875 43.75 30.9063 43.5938C34.4063 43.4375 37.5312 42.625 40.0625 40.0625C42.625 37.5 43.4375 34.4063 43.5938 30.9063C43.7812 27.9063 43.75 24.9062 43.75 21.875ZM21.875 33.0938C15.6562 33.0938 10.6562 28.0938 10.6562 21.875C10.6562 15.6562 15.6562 10.6562 21.875 10.6562C28.0938 10.6562 33.0938 15.6562 33.0938 21.875C33.0938 28.0938 28.0938 33.0938 21.875 33.0938ZM33.5625 12.8125C32.125 12.8125 30.9375 11.6563 30.9375 10.1875C30.9375 8.71875 32.0938 7.5625 33.5625 7.5625C35.0312 7.5625 36.1875 8.71875 36.1875 10.1875C36.1954 10.5298 36.1329 10.8701 36.0039 11.1872C35.8749 11.5044 35.6821 11.7917 35.4375 12.0312C35.1979 12.2759 34.9106 12.4686 34.5935 12.5977C34.2763 12.7267 33.9361 12.7892 33.5938 12.7812L33.5625 12.8125Z" fill="white"/>
</svg>
