<svg width="30" height="30" viewBox="0 0 30 30" fill="none" xmlns="http://www.w3.org/2000/svg">
<path d="M25.5387 16.1296V23.6221C25.5175 24.4933 25.095 24.9746 24.2225 25.0471C23.2212 25.1296 22.215 25.1821 21.21 25.2421C19.185 25.3671 17.1595 25.4896 15.1337 25.6096C13.34 25.7158 11.5462 25.8096 9.75496 25.9308C8.96246 25.9821 8.33871 25.7321 7.89996 25.0521C7.76996 24.8508 7.60371 24.6696 7.45621 24.4771C6.70621 23.5096 5.96246 22.5396 5.20871 21.5771C4.70213 20.9559 4.43316 20.1747 4.44996 19.3733C4.47496 15.1108 4.45996 10.8508 4.46246 6.58958C4.46246 6.42875 4.47496 6.26875 4.49996 6.10958C4.61496 5.48458 5.00246 5.09708 5.63496 5.03708C6.66996 4.93958 7.72121 4.87208 8.76496 4.79333L13.7525 4.42583C15.35 4.30958 16.9475 4.19833 18.545 4.07208C19.3457 4.00715 20.1418 4.2434 20.7775 4.73458C22.185 5.75583 23.615 6.74333 25.0425 7.73958C25.2077 7.84558 25.3415 7.99387 25.4301 8.16905C25.5187 8.34423 25.5588 8.53993 25.5462 8.73583C25.5325 11.1996 25.5387 13.6646 25.5387 16.1296ZM24.0862 16.2258V9.84583C24.0862 9.23083 23.87 9.01833 23.2737 9.05333L18.0862 9.34833L11.7237 9.72083C10.9762 9.76333 10.2287 9.80916 9.48121 9.85833C9.08496 9.88583 8.90496 10.0608 8.84621 10.4496C8.83121 10.5621 8.82496 10.6746 8.82746 10.7871V23.1121C8.82746 24.0708 9.08246 24.3108 10.045 24.2546C11.0075 24.1983 11.9687 24.1358 12.9412 24.0796L23.24 23.4883C23.7925 23.4571 24.0437 23.2133 24.0875 22.6646C24.095 22.5683 24.0875 22.4721 24.0875 22.3696L24.0862 16.2258ZM22.5275 7.58083L22.5612 7.51708C22.4857 7.42436 22.402 7.3386 22.3112 7.26083C21.6287 6.76208 20.9387 6.27333 20.2575 5.78208C19.8112 5.44083 19.2575 5.26958 18.6962 5.30083C17.5787 5.36833 16.4637 5.45708 15.3462 5.53833L8.16621 6.05958C7.65121 6.09708 7.12996 6.13708 6.62746 6.19708C6.57123 6.20832 6.51833 6.23231 6.47282 6.2672C6.42732 6.30209 6.39042 6.34695 6.36496 6.39833C6.34371 6.45958 6.44496 6.59708 6.52371 6.66083C7.08621 7.11458 7.65871 7.56083 8.22621 8.00833C8.53246 8.26333 8.92371 8.39583 9.32121 8.37958C9.51496 8.37083 9.70871 8.37958 9.90121 8.36208L15.1112 8.04208L22.0337 7.63458C22.1987 7.61541 22.3633 7.5975 22.5275 7.58083Z" fill="black"/>
<path d="M19.4088 18.3605V12.5355C19.0938 12.498 18.7925 12.4542 18.4888 12.4317C18.3225 12.4192 18.2838 12.3442 18.3013 12.198C18.3173 12.0393 18.3869 11.8909 18.4988 11.7772C18.6106 11.6636 18.7579 11.5915 18.9163 11.573C19.92 11.498 20.9238 11.4467 21.9225 11.3867C22.0713 11.883 21.9225 12.1267 21.4475 12.2205C20.9238 12.3292 20.9238 12.3292 20.9238 12.8605V21.4167C20.9238 21.6155 20.8713 21.7367 20.6838 21.7955C20.3534 21.9194 20.0166 22.0258 19.675 22.1142C19.1263 22.2292 18.64 22.0767 18.3138 21.603C17.8595 20.9484 17.4157 20.2867 16.9825 19.618C15.9775 18.063 14.985 16.5017 13.9863 14.943C13.9663 14.9105 13.9388 14.8792 13.8825 14.8017C13.87 14.9092 13.8588 14.9705 13.8588 15.0342V20.8592C13.8588 21.0305 13.9138 21.1005 14.0788 21.1317C14.4488 21.2042 14.8175 21.293 15.1788 21.3742C15.1724 21.5556 15.1005 21.7285 14.9764 21.8609C14.8522 21.9933 14.6843 22.0762 14.5038 22.0942C14.2007 22.1352 13.8957 22.1602 13.59 22.1692C12.85 22.2142 12.11 22.2492 11.3713 22.3017C11.155 22.3167 11.1113 22.2267 11.1488 22.0505C11.1603 21.9448 11.2043 21.8453 11.2749 21.7658C11.3454 21.6863 11.439 21.6307 11.5425 21.6067C11.775 21.5505 12.005 21.4767 12.235 21.4117V13.0492L11.1988 12.9567C11.1642 12.8488 11.1548 12.7344 11.1714 12.6224C11.188 12.5103 11.2301 12.4035 11.2944 12.3103C11.3588 12.2171 11.4437 12.1398 11.5427 12.0846C11.6416 12.0294 11.7519 11.9976 11.865 11.9917C12.7713 11.9192 13.6838 11.8917 14.5875 11.7892C14.9738 11.7467 15.1538 11.8892 15.3475 12.188C16.6263 14.158 17.9225 16.1205 19.2138 18.0842L19.4088 18.3605Z" fill="black"/>
</svg>
