<svg width="200" height="200" viewBox="0 0 200 200" fill="none" xmlns="http://www.w3.org/2000/svg">
<path d="M160.333 25H39.6667C35.7768 25 32.0463 26.5452 29.2958 29.2958C26.5452 32.0463 25 35.7768 25 39.6667V160.333C25 164.223 26.5452 167.954 29.2958 170.704C32.0463 173.455 35.7768 175 39.6667 175H160.333C162.259 175 164.167 174.621 165.946 173.884C167.725 173.146 169.342 172.066 170.704 170.704C172.066 169.342 173.146 167.725 173.884 165.946C174.621 164.167 175 162.259 175 160.333V39.6667C175 37.7406 174.621 35.8334 173.884 34.054C173.146 32.2745 172.066 30.6577 170.704 29.2958C169.342 27.9338 167.725 26.8535 165.946 26.1164C164.167 25.3794 162.259 25 160.333 25ZM112 108.333H93.25V162H78.3333V108.333H59.5833V96.1667H112V108.333ZM160.333 152.333C159.131 154.901 157.186 157.049 154.75 158.5C152.19 160.075 149.367 161.176 146.417 161.75C143.125 162.418 139.775 162.753 136.417 162.75C132.98 162.747 129.55 162.44 126.167 161.833C123.291 161.246 120.494 160.323 117.833 159.083V144.833L117.333 144.333H117.833V144.917C120.339 146.874 123.156 148.395 126.167 149.417C129.174 150.553 132.368 151.119 135.583 151.083C137.264 151.111 138.942 150.943 140.583 150.583C141.815 150.291 142.995 149.813 144.083 149.167C144.934 148.648 145.648 147.934 146.167 147.083C146.68 146.115 146.905 145.02 146.817 143.927C146.728 142.834 146.329 141.79 145.667 140.917C144.89 139.813 143.898 138.877 142.75 138.167C141.366 137.186 139.887 136.348 138.333 135.667L132.75 133.333C128.335 131.504 124.421 128.647 121.333 125C118.755 121.892 117.393 117.954 117.5 113.917C117.403 110.85 118.091 107.809 119.5 105.083C120.847 102.709 122.73 100.683 125 99.1667C127.533 97.4863 130.36 96.2989 133.333 95.6667C136.584 94.9097 139.913 94.546 143.25 94.5833C146.288 94.5409 149.325 94.7359 152.333 95.1667C154.836 95.5562 157.293 96.1984 159.667 97.0833V110.833C158.57 110.05 157.398 109.38 156.167 108.833C154.838 108.273 153.474 107.8 152.083 107.417C150.748 107.026 149.382 106.747 148 106.583C146.725 106.466 145.442 106.466 144.167 106.583C142.596 106.558 141.029 106.726 139.5 107.083C138.244 107.341 137.036 107.791 135.917 108.417C135.045 108.937 134.304 109.65 133.75 110.5C133.251 111.33 132.992 112.282 133 113.25C132.969 114.285 133.26 115.304 133.833 116.167C134.519 117.112 135.365 117.93 136.333 118.583C137.511 119.515 138.798 120.299 140.167 120.917L145.417 123.25C147.826 124.259 150.164 125.428 152.417 126.75C154.389 127.837 156.187 129.213 157.75 130.833C159.276 132.315 160.469 134.105 161.25 136.083C162.046 138.359 162.441 140.756 162.417 143.167C162.352 146.278 161.643 149.343 160.333 152.167V152.333Z" fill="white"/>
</svg>
