<svg width="200" height="200" viewBox="0 0 200 200" fill="none" xmlns="http://www.w3.org/2000/svg">
<path d="M86.75 79C89.6667 88.5 92.6667 98 95.6667 107.667H78C81 98 83.8333 88.5 86.75 79Z" fill="white"/>
<path d="M141.668 16.666H58.3346C47.2839 16.666 36.6859 21.0559 28.8719 28.8699C21.0578 36.6839 16.668 47.282 16.668 58.3327V141.666C16.668 152.717 21.0578 163.315 28.8719 171.129C36.6859 178.943 47.2839 183.333 58.3346 183.333H141.668C152.719 183.333 163.317 178.943 171.131 171.129C178.945 163.315 183.335 152.717 183.335 141.666V58.3327C183.335 47.282 178.945 36.6839 171.131 28.8699C163.317 21.0559 152.719 16.666 141.668 16.666ZM120.751 139.833H107.751C107.233 139.905 106.707 139.77 106.286 139.459C105.865 139.147 105.584 138.683 105.501 138.166C103.918 133.499 102.251 128.833 100.668 124.083C100.618 123.785 100.509 123.5 100.347 123.245C100.184 122.991 99.9724 122.771 99.7236 122.6C99.4747 122.429 99.194 122.31 98.8981 122.25C98.6022 122.189 98.2972 122.189 98.0013 122.249H75.8346C75.5268 122.177 75.2071 122.17 74.8964 122.229C74.5857 122.288 74.2909 122.412 74.0315 122.593C73.772 122.774 73.5535 123.008 73.3904 123.279C73.2272 123.55 73.123 123.852 73.0846 124.166C71.668 128.833 70.0846 133.333 68.668 137.999C68.6283 138.294 68.5286 138.577 68.3749 138.831C68.2212 139.085 68.0169 139.305 67.7746 139.477C67.5323 139.649 67.2573 139.769 66.9666 139.831C66.6758 139.892 66.3756 139.892 66.0846 139.833H54.668C52.668 139.833 52.5013 139.833 53.168 137.749L71.168 85.8327C72.8346 81.0827 74.5013 76.3327 76.0013 71.5827C76.4134 70.1739 76.6375 68.7168 76.668 67.2493C76.668 65.4993 77.3346 65.0827 78.918 65.166H94.8346C96.0013 65.166 96.5846 65.166 97.0013 66.7493L117.501 124.499C119.085 128.999 120.668 133.416 122.168 137.833C122.835 139.666 122.751 139.833 120.751 139.833ZM146.251 138.416C146.251 139.833 145.668 140.249 144.335 140.249H132.335C130.668 140.249 130.251 139.583 130.251 138.083V85.7493C130.251 84.0827 130.751 83.416 132.501 83.4994H144.251C145.585 83.4994 146.251 83.4993 146.251 85.3327C146.196 102.999 146.196 120.694 146.251 138.416ZM137.918 77.5827C136.724 77.6585 135.528 77.4763 134.41 77.0485C133.293 76.6206 132.281 75.9572 131.443 75.1033C130.604 74.2494 129.96 73.2251 129.553 72.0999C129.146 70.9747 128.987 69.7751 129.085 68.5827C129.095 67.3974 129.342 66.2262 129.811 65.1374C130.279 64.0487 130.96 63.0643 131.814 62.2418C132.667 61.4193 133.676 60.7753 134.782 60.3473C135.887 59.9194 137.066 59.7161 138.251 59.7493C139.404 59.7457 140.545 59.9812 141.602 60.441C142.659 60.9009 143.609 61.575 144.393 62.4209C145.176 63.2668 145.775 64.2659 146.152 65.3552C146.53 66.4445 146.677 67.6003 146.585 68.7493C146.653 69.885 146.488 71.0226 146.1 72.0921C145.712 73.1616 145.109 74.1403 144.328 74.9679C143.547 75.7954 142.605 76.4544 141.56 76.9041C140.515 77.3538 139.389 77.5847 138.251 77.5827H137.918Z" fill="white"/>
<path d="M95.6667 107.667H78C81 98 83.8333 88.5 86.3333 79C89.6667 88.5 92.6667 98 95.6667 107.667Z" fill="white"/>
</svg>
