<svg width="200" height="200" viewBox="0 0 200 200" fill="none" xmlns="http://www.w3.org/2000/svg">
<path opacity="0.6" d="M97.2266 16.666H69.4432C62.0757 16.666 55.01 19.5927 49.8004 24.8023C44.5908 30.0119 41.6641 37.0777 41.6641 44.4452C41.6641 51.8127 44.5908 58.8784 49.8004 64.088C55.01 69.2976 62.0757 72.2243 69.4432 72.2243H97.2266V16.666Z" fill="white"/>
<path opacity="0.4" d="M97.2263 72.2246H69.443C62.0766 72.2246 55.0119 75.1509 49.8031 80.3597C44.5943 85.5685 41.668 92.6332 41.668 99.9996C41.668 107.366 44.5943 114.431 49.8031 119.639C55.0119 124.848 62.0766 127.775 69.443 127.775H97.2263V72.2246Z" fill="white"/>
<path d="M152.773 99.9999C152.773 107.367 149.846 114.433 144.637 119.643C139.427 124.852 132.362 127.779 124.994 127.779C117.627 127.779 110.561 124.852 105.351 119.643C100.142 114.433 97.2148 107.367 97.2148 99.9999C97.2148 92.6324 100.142 85.5666 105.351 80.357C110.561 75.1474 117.627 72.2207 124.994 72.2207C132.362 72.2207 139.427 75.1474 144.637 80.357C149.846 85.5666 152.773 92.6324 152.773 99.9999Z" fill="white"/>
<path opacity="0.2" d="M69.4425 127.784H97.2258V155.559C97.2241 161.051 95.594 166.42 92.5414 170.987C89.4888 175.553 85.1509 179.112 80.076 181.213C75.0011 183.314 69.4172 183.863 64.0301 182.791C58.6431 181.719 53.6948 179.074 49.8109 175.19C45.927 171.306 43.2819 166.358 42.2099 160.971C41.1379 155.584 41.6873 150 43.7884 144.925C45.8896 139.85 49.4483 135.512 54.0146 132.46C58.5809 129.407 63.9498 127.785 69.4425 127.784Z" fill="white"/>
<path opacity="0.8" d="M97.2148 16.666H124.99C132.357 16.666 139.423 19.5927 144.633 24.8023C149.842 30.0119 152.769 37.0777 152.769 44.4452C152.769 51.8127 149.842 58.8784 144.633 64.088C139.423 69.2976 132.357 72.2243 124.99 72.2243H97.2148V16.666Z" fill="white"/>
</svg>
