<svg width="200" height="200" viewBox="0 0 200 200" fill="none" xmlns="http://www.w3.org/2000/svg">
<path d="M87.082 87.3337C87.2081 89.864 86.4435 92.3584 84.921 94.3834C83.3985 96.4083 81.2145 97.8356 78.7487 98.417C74.3986 99.7017 69.8617 100.237 65.332 100C64.1654 100 64.082 99.2504 64.082 98.417V77.167C64.082 76.5837 64.6654 75.5837 64.9987 75.5837C69.7657 75.0499 74.5894 75.3602 79.2487 76.5004C81.5935 77.143 83.6485 78.5674 85.0731 80.5376C86.4977 82.5078 87.2065 84.9056 87.082 87.3337Z" fill="white"/>
<path d="M141.668 16.666H58.3346C47.2839 16.666 36.6859 21.0559 28.8719 28.8699C21.0578 36.6839 16.668 47.282 16.668 58.3327V141.666C16.668 152.717 21.0578 163.315 28.8719 171.129C36.6859 178.943 47.2839 183.333 58.3346 183.333H141.668C152.719 183.333 163.317 178.943 171.131 171.129C178.945 163.315 183.335 152.717 183.335 141.666V58.3327C183.335 47.282 178.945 36.6839 171.131 28.8699C163.317 21.0559 152.719 16.666 141.668 16.666ZM91.668 108.333C87.4622 111.004 82.6424 112.553 77.668 112.833H66.5013C64.168 112.833 64.168 112.833 64.168 115.083V134.416C64.168 136.083 63.668 136.583 62.0013 136.583H51.0013C49.418 136.583 49.0013 135.999 49.0013 134.499V64.2493C49.0013 62.5827 49.0013 62.0827 51.0846 62.0827H77.168C81.929 62.2117 86.5772 63.5603 90.668 65.9993C94.2009 67.9901 97.1423 70.8826 99.1919 74.3816C101.242 77.8806 102.326 81.8609 102.335 85.916C102.817 90.2748 102.074 94.6816 100.19 98.6415C98.3053 102.601 95.3543 105.957 91.668 108.333ZM141.001 135.833C133.754 138.656 125.82 139.208 118.251 137.416C115.979 136.916 113.757 136.249 111.585 135.416C111.25 135.259 110.955 135.027 110.724 134.738C110.493 134.449 110.331 134.111 110.251 133.749V121.166C112.918 122.166 115.418 123.333 118.001 124.166C122.331 125.55 126.915 125.948 131.418 125.333C132.318 125.166 133.179 124.888 134.001 124.499C134.49 124.285 134.914 123.949 135.234 123.522C135.553 123.095 135.756 122.592 135.823 122.063C135.89 121.534 135.819 120.997 135.617 120.504C135.414 120.011 135.087 119.578 134.668 119.249C132.762 117.93 130.723 116.813 128.585 115.916C125.168 114.249 121.668 112.916 118.418 110.999C115.484 109.572 113.088 107.236 111.587 104.338C110.085 101.441 109.559 98.1366 110.085 94.916C110.508 91.8164 111.796 88.8987 113.8 86.4966C115.805 84.0945 118.444 82.3049 121.418 81.3327C126.777 79.5204 132.496 79.0343 138.085 79.916C140.751 79.916 143.335 80.916 146.001 81.416C147.418 81.416 147.918 82.5827 147.835 83.9993V93.7493C147.835 95.5827 147.418 95.7493 145.751 95.0827C140.547 92.673 134.793 91.6949 129.085 92.2493C128.276 92.3434 127.488 92.5686 126.751 92.916C126.251 93.1123 125.811 93.4358 125.475 93.8544C125.138 94.273 124.917 94.7722 124.833 95.3027C124.749 95.8331 124.805 96.3763 124.995 96.8785C125.185 97.3808 125.503 97.8246 125.918 98.166C128.329 99.7716 130.857 101.16 133.501 102.333C136.668 103.916 140.001 105.166 143.085 106.916C145.882 108.189 148.2 110.323 149.699 113.007C151.198 115.69 151.801 118.783 151.418 121.833C151.155 124.875 150.026 127.779 148.165 130.201C146.305 132.622 143.79 134.461 140.918 135.499L141.001 135.833Z" fill="white"/>
</svg>
