<svg width="200" height="200" viewBox="0 0 200 200" fill="none" xmlns="http://www.w3.org/2000/svg">
<path d="M74.9375 123.47L75.239 123.616L75.7765 123.876C76.462 124.204 77.1542 124.524 77.8531 124.837L78.2922 125.032C79.0932 125.383 79.901 125.719 80.7156 126.04L81.3062 126.271C82.0614 126.566 82.8234 126.849 83.5922 127.12L83.8797 127.218C84.7219 127.512 85.5719 127.785 86.4297 128.052L87.0469 128.235C87.9187 128.499 88.7797 128.813 89.6797 128.98C146.795 139.395 163.384 94.657 163.384 94.657C149.45 112.81 124.717 117.599 101.283 112.268C100.395 112.068 99.5328 111.79 98.6672 111.534L98.0156 111.337C97.1715 111.078 96.3318 110.805 95.4969 110.518L95.1515 110.393C94.4074 110.13 93.6672 109.855 92.9312 109.57L92.3094 109.326C91.5041 109.009 90.7049 108.677 89.9125 108.329L89.4328 108.116C88.7552 107.811 88.0812 107.497 87.4109 107.176L86.825 106.895C86.3 106.638 85.7797 106.365 85.2609 106.098L84.2172 105.551C83.5864 105.212 82.9618 104.861 82.3437 104.499L81.7109 104.146C80.8892 103.66 80.075 103.161 79.2687 102.649L78.6109 102.212C78.0255 101.836 77.4463 101.451 76.8734 101.057L76.314 100.663C75.762 100.273 75.2146 99.8768 74.6719 99.4758L73.9437 98.9242C73.4451 98.5451 72.9513 98.1597 72.4625 97.768L71.8015 97.2367C71.1795 96.7262 70.5638 96.2079 69.9547 95.682L69.7531 95.5117C69.0954 94.9357 68.4474 94.3486 67.8094 93.7508L67.2625 93.2242C66.7896 92.7763 66.3245 92.3211 65.8672 91.8586L65.3203 91.3117C64.7404 90.7177 64.17 90.1145 63.6094 89.5023L63.525 89.4117C62.9338 88.7645 62.3551 88.1061 61.789 87.4367L61.3344 86.8961C60.9114 86.3878 60.4953 85.8732 60.0859 85.3523L59.6281 84.7836C59.1381 84.1505 58.6573 83.5103 58.1859 82.8633C45.1765 65.1164 40.5015 40.6398 50.9 20.5383L41.6828 32.2289C29.8719 49.2023 31.3437 71.2867 40.364 89.3242L41.025 90.607L41.4484 91.4195L41.7109 91.8867L42.1812 92.7289C42.4604 93.2227 42.7469 93.7143 43.0406 94.2039L43.5328 95.0148C43.8578 95.5388 44.1911 96.0596 44.5328 96.5773L44.9578 97.2367C45.4276 97.9388 45.9099 98.6346 46.4047 99.3242L46.4469 99.3789L46.6906 99.7086C47.1219 100.3 47.5614 100.885 48.0094 101.463L48.5062 102.095C48.9052 102.597 49.3114 103.096 49.725 103.593L50.1906 104.148C50.7448 104.804 51.3109 105.451 51.889 106.088L51.9234 106.124L51.989 106.196C52.5515 106.812 53.1297 107.412 53.714 108.015L54.2672 108.573C54.7203 109.028 55.1797 109.478 55.6453 109.924L56.2094 110.46C56.8281 111.045 57.4573 111.618 58.0969 112.18L58.1281 112.204L58.4562 112.485C59.0219 112.975 59.5943 113.458 60.1734 113.935L60.8844 114.501C61.3562 114.879 61.8333 115.252 62.3156 115.62L63.0797 116.201C63.6109 116.591 64.1458 116.975 64.6844 117.352L65.2703 117.768L65.4312 117.882C65.9437 118.235 66.4672 118.573 66.9906 118.912L67.6656 119.362C68.4677 119.872 69.2812 120.37 70.1062 120.855L70.7812 121.237C71.3854 121.586 71.9958 121.927 72.6125 122.262L73.625 122.787L74.9375 123.47ZM80.7078 65.9773C81.9875 67.8117 83.4047 69.993 85.1031 71.468C85.7187 72.1461 86.3625 72.8055 87.0187 73.457L87.525 73.9539C88.1625 74.5737 88.8146 75.1799 89.4812 75.7727L89.5625 75.8414L89.5812 75.8617C90.3234 76.5117 91.089 77.1367 91.8672 77.7523L92.3875 78.1586C93.1687 78.757 93.964 79.3445 94.7797 79.9055L94.85 79.957L95.9406 80.6758L96.4594 81.0195C97.0422 81.3914 97.6312 81.757 98.2328 82.1039L98.4828 82.2492C99.0015 82.5482 99.5239 82.8404 100.05 83.1258L100.606 83.418L101.703 83.9852L101.869 84.0602C102.621 84.431 103.383 84.7862 104.156 85.1258L104.661 85.3336C105.281 85.5982 105.905 85.8518 106.534 86.0945L107.337 86.3883C107.909 86.6008 108.481 86.7945 109.059 86.9867L109.839 87.2367C110.661 87.4914 111.472 87.8133 112.328 87.9555C156.425 95.2633 166.606 61.3086 166.606 61.3086C157.428 74.5258 139.656 80.8305 120.691 75.9086C119.853 75.6884 119.02 75.4477 118.194 75.1867L117.442 74.9445C116.856 74.7549 116.273 74.5544 115.695 74.343L114.908 74.0492C114.277 73.8068 113.649 73.5542 113.027 73.2914L112.52 73.0758C111.745 72.7385 110.978 72.3816 110.22 72.0055L109.066 71.418L108.4 71.0758C107.909 70.8081 107.423 70.5336 106.941 70.2523L106.592 70.0539C105.996 69.7059 105.406 69.347 104.823 68.9773L104.291 68.6195L103.147 67.8633C102.338 67.3024 101.544 66.7215 100.764 66.1211L100.228 65.6977C91.9266 59.1461 85.3469 50.1867 82.2172 40.0289C78.939 29.4977 79.6453 17.6727 85.325 8.07734L78.3469 17.9305C69.8062 30.2195 70.2703 46.6742 76.9328 59.6727C78.0484 61.8565 79.3095 63.9628 80.7078 65.9773ZM127.187 50.7727L128.283 51.1523L128.766 51.3055C129.286 51.468 129.8 51.6586 130.336 51.7586C154.684 56.4633 161.291 39.2633 163.048 36.732C157.262 45.0617 147.541 47.0602 135.611 44.1648C134.634 43.9172 133.67 43.6199 132.723 43.2742C131.558 42.8596 130.414 42.385 129.297 41.8523C127.177 40.8323 125.164 39.6038 123.287 38.1852C112.612 30.0836 105.981 14.6352 112.947 2.05078L109.178 7.24453C104.144 14.6555 103.648 23.8586 107.142 32.0398C110.827 40.7273 118.377 47.5398 127.187 50.7727ZM103.684 150.462H97.0812C96.8947 150.47 96.7156 150.538 96.5703 150.655C96.425 150.772 96.3209 150.933 96.2734 151.113L93.9297 161.957L91.5859 172.801C91.5399 172.982 91.4364 173.143 91.2911 173.261C91.1458 173.378 90.9664 173.445 90.7797 173.452H86.1062C81.4828 173.452 82.0172 170.254 82.964 165.873L82.9922 165.74L83.0953 165.187L83.114 165.084L83.325 163.959L83.5515 162.754L83.7922 161.527L84.8578 156.321L85.925 151.115C85.9453 151.035 85.9468 150.952 85.9292 150.872C85.9116 150.792 85.8754 150.717 85.8236 150.653C85.7718 150.59 85.7058 150.539 85.6308 150.505C85.5559 150.472 85.4742 150.456 85.3922 150.46H78.6156C78.4289 150.467 78.2496 150.534 78.1047 150.652C77.9598 150.77 77.8572 150.932 77.8125 151.113L76.3547 158.026L74.8984 164.94L74.8953 164.949L74.7609 165.593C73.0828 173.254 73.5265 180.562 82.6484 180.791L82.914 180.796H97.2312C97.4179 180.789 97.5974 180.722 97.7427 180.604C97.888 180.487 97.9914 180.326 98.0375 180.145L101.125 165.63L104.212 151.115C104.289 150.755 104.052 150.463 103.684 150.462ZM32.9719 150.385H25.7219C25.5344 150.392 25.3541 150.459 25.2076 150.576C25.061 150.693 24.9559 150.854 24.9078 151.035L24.2203 154.07L23.5328 157.104C23.4531 157.462 23.6859 157.754 24.0531 157.754H31.3594C31.5462 157.746 31.7256 157.679 31.8712 157.561C32.0169 157.444 32.1211 157.283 32.1687 157.102L32.8328 154.07L33.4969 151.037C33.5734 150.679 33.339 150.385 32.9719 150.385ZM30.8687 159.829H23.5609C23.3735 159.836 23.1932 159.903 23.0466 160.02C22.9 160.137 22.795 160.298 22.7469 160.479L21.7203 165.026L20.6953 169.571L20.4094 170.874L19.4234 175.515L18.439 180.157C18.3625 180.515 18.2047 181.093 18.0875 181.44C18.0875 181.44 16.7219 185.502 14.4265 185.455L14.139 185.449L12.1531 185.413C11.9667 185.418 11.7851 185.483 11.6378 185.597C11.4906 185.711 11.3837 185.87 11.3328 186.049L10.575 189.235L9.81873 192.42C9.73279 192.776 9.96404 193.07 10.3281 193.076C11.6297 193.091 14.5453 193.124 16.3094 193.124C22.0422 193.124 25.0656 189.948 27.0015 180.807L29.2687 170.316L31.3953 160.477C31.4719 160.123 31.2344 159.829 30.8687 159.829ZM165.427 157.37L165.123 156.118L164.825 154.837L164.673 154.19C164.08 151.882 162.337 150.552 158.553 150.552L152.662 150.546L147.237 150.538H141.133C140.946 150.545 140.767 150.612 140.621 150.729C140.476 150.847 140.373 151.009 140.328 151.19L140.058 152.465L139.739 153.971L139.65 154.395L136.902 167.27L134.292 179.491C134.214 179.851 134.189 180.291 134.233 180.47C134.277 180.649 134.981 180.796 135.347 180.796H140.853C141.22 180.796 141.684 180.73 141.884 180.649C142.084 180.568 142.38 179.848 142.453 179.49L143.431 174.648L144.411 169.804L144.412 169.796L144.544 169.151L145.731 163.588L146.78 158.676C146.826 158.495 146.929 158.334 147.074 158.217C147.219 158.099 147.398 158.032 147.584 158.024L164.911 158.016C165.278 158.02 165.509 157.727 165.427 157.37ZM187.731 146.057L186.397 146.062H180.852C180.648 146.073 180.45 146.128 180.27 146.223C180.09 146.318 179.933 146.451 179.809 146.613L167.545 164.579C167.339 164.882 167.103 164.838 167.022 164.482L166.119 160.524C166.071 160.343 165.965 160.181 165.818 160.064C165.671 159.947 165.491 159.881 165.303 159.874H157.42C157.053 159.874 156.836 160.162 156.936 160.513L160.469 172.89C160.569 173.243 160.577 173.821 160.486 174.177L158.947 180.166C158.855 180.523 159.08 180.812 159.447 180.812H167.239C167.428 180.804 167.609 180.738 167.758 180.622C167.907 180.506 168.016 180.347 168.07 180.166L169.611 174.177C169.732 173.755 169.924 173.356 170.178 172.998L190.087 146.574C190.309 146.28 190.189 146.041 189.823 146.045L187.731 146.057ZM125.097 161.555V161.549C125.07 161.738 124.977 161.911 124.834 162.037C124.691 162.163 124.508 162.235 124.317 162.238H114.322C113.975 162.238 113.8 162.004 113.852 161.713L113.861 161.69L113.855 161.693L113.859 161.66L113.905 161.49C114.859 158.952 116.803 157.287 120.458 157.287C124.573 157.285 125.377 159.295 125.097 161.555ZM122.164 150.018C109.334 150.018 106.294 157.805 104.587 165.666C102.883 173.679 103.028 181.168 116.306 181.168H117.916L118.316 181.166H118.409L120.003 181.162H120.031C123.537 181.148 127.055 181.121 128.478 181.11C128.664 181.102 128.842 181.033 128.985 180.915C129.129 180.796 129.23 180.635 129.273 180.454L129.811 177.827L129.916 177.316L130.556 174.182C130.577 174.103 130.578 174.019 130.561 173.939C130.543 173.859 130.507 173.784 130.455 173.721C130.403 173.657 130.337 173.607 130.262 173.573C130.187 173.54 130.105 173.525 130.023 173.529H118.087C113.339 173.529 111.93 172.268 112.45 168.559H131.53L131.528 168.56L131.541 168.559C131.692 168.553 131.838 168.503 131.961 168.416C132.085 168.328 132.18 168.207 132.236 168.066L132.281 167.901L132.28 167.902C135.112 157.216 134.3 150.02 122.164 150.018ZM61.5234 161.515L61.3422 162.154L59.9015 167.262L58.4609 172.366C58.4012 172.547 58.2882 172.705 58.1366 172.82C57.9851 172.934 57.8023 173 57.6125 173.009H49.9875C44.2031 173.009 42.7937 168.484 44.2031 161.812C45.6109 154.987 48.3719 150.745 54.0656 150.315C61.8469 149.727 63.4031 155.199 61.5234 161.515ZM66.7547 172.616C66.7547 172.616 70.35 163.885 71.1656 158.845C72.2797 152.096 68.9 142.305 55.8469 142.305C42.8687 142.305 37.2312 151.651 35.0812 161.812C32.9312 172.046 35.7484 181.02 48.6531 180.946L58.8344 180.909L68.3484 180.874C68.537 180.865 68.7182 180.798 68.8674 180.682C69.0166 180.566 69.1267 180.408 69.1828 180.227L70.8406 173.905C70.9328 173.549 70.7094 173.259 70.3422 173.255L68.7531 173.246L67.164 173.237C66.8531 173.235 66.675 173.032 66.7125 172.765L66.7547 172.616ZM131.005 166.771C131.005 166.829 130.994 166.885 130.972 166.939C130.95 166.992 130.918 167.04 130.877 167.081C130.837 167.121 130.788 167.154 130.735 167.176C130.682 167.198 130.625 167.209 130.568 167.209C130.51 167.209 130.454 167.198 130.4 167.176C130.347 167.154 130.299 167.122 130.258 167.082C130.218 167.041 130.185 166.993 130.163 166.94C130.141 166.887 130.13 166.83 130.13 166.773C130.129 166.657 130.175 166.545 130.257 166.463C130.339 166.381 130.45 166.335 130.566 166.334C130.682 166.334 130.794 166.38 130.876 166.462C130.958 166.544 131.004 166.655 131.005 166.771Z" fill="white"/>
</svg>
