<svg width="200" height="200" viewBox="0 0 200 200" fill="none" xmlns="http://www.w3.org/2000/svg">
<g clip-path="url(#clip0_442_30)">
<mask id="mask0_442_30" style="mask-type:luminance" maskUnits="userSpaceOnUse" x="0" y="0" width="200" height="200">
<path d="M0 0H200V200H0V0Z" fill="white"/>
</mask>
<g mask="url(#mask0_442_30)">
<path d="M42.332 0H51.3487V8.90833H59.5987V0H68.6154V26.9667H59.5987V17.9417H51.3487V26.9667H42.3404L42.332 0ZM80.4654 8.94167H72.532V0H97.4237V8.94167H89.482V26.9667H80.4654V8.94167ZM101.374 0H110.774L116.557 9.475L122.332 0H131.732V26.9667H122.757V13.6L116.557 23.1917H116.399L110.19 13.6083V26.9667H101.374V0ZM136.215 0H145.24V18.0583H157.907V26.975H136.215V0Z" fill="white"/>
<path fill-rule="evenodd" clip-rule="evenodd" d="M42.05 183.934L25 39.3086H175L157.942 183.917L99.9167 200L42.05 183.934ZM76.525 104.767L74.9083 86.6003H142.783L144.367 68.8669H55.5333L60.3167 122.509H121.792L119.733 145.509L99.95 150.859H99.9333L80.1833 145.525L78.9167 131.384H61.1L63.5833 159.234L99.9167 169.317L136.308 159.234L140.742 109.534L141.175 104.775L76.525 104.767Z" fill="white"/>
</g>
</g>
<defs>
<clipPath id="clip0_442_30">
<rect width="200" height="200" fill="white"/>
</clipPath>
</defs>
</svg>
