<svg width="200" height="200" viewBox="0 0 200 200" fill="none" xmlns="http://www.w3.org/2000/svg">
<path d="M100.001 84.2494C108.585 84.2494 115.585 91.2494 115.585 99.9994C115.585 108.333 108.585 115.416 100.001 115.416C91.418 115.416 84.418 108.333 84.418 99.9994C84.418 91.2494 91.418 84.2494 100.001 84.2494ZM61.418 166.666C66.668 169.833 78.168 164.999 91.418 152.499C87.0846 147.583 82.8346 142.249 78.8346 136.666C72.1198 136.019 65.4439 135.017 58.8346 133.666C54.5846 151.499 56.168 163.749 61.418 166.666ZM67.3346 118.833L64.918 114.583C64.0013 116.999 63.0846 119.416 62.5013 121.749C64.7513 122.249 67.2513 122.666 69.8346 123.083L67.3346 118.833ZM121.835 112.499L128.585 99.9994L121.835 87.4994C119.335 83.0827 116.668 79.166 114.251 75.2494C109.751 74.9994 105.001 74.9994 100.001 74.9994C95.0013 74.9994 90.2513 74.9994 85.7513 75.2494C83.3346 79.166 80.668 83.0827 78.168 87.4994L71.418 99.9994L78.168 112.499C80.668 116.916 83.3346 120.833 85.7513 124.749C90.2513 124.999 95.0013 124.999 100.001 124.999C105.001 124.999 109.751 124.999 114.251 124.749C116.668 120.833 119.335 116.916 121.835 112.499ZM100.001 56.4994C98.418 58.3327 96.7513 60.2494 95.0846 62.4994H104.918C103.251 60.2494 101.585 58.3327 100.001 56.4994ZM100.001 143.499C101.585 141.666 103.251 139.749 104.918 137.499H95.0846C96.7513 139.749 98.418 141.666 100.001 143.499ZM138.501 33.3327C133.335 30.166 121.835 34.9994 108.585 47.4994C112.918 52.416 117.168 57.7494 121.168 63.3327C128.001 63.9994 134.751 64.9994 141.168 66.3327C145.418 48.4994 143.835 36.2494 138.501 33.3327ZM132.668 81.166L135.085 85.416C136.001 82.9994 136.918 80.5827 137.501 78.2494C135.251 77.7494 132.751 77.3327 130.168 76.916L132.668 81.166ZM144.751 22.416C157.001 29.416 158.335 47.8327 153.168 69.3327C174.335 75.5827 189.585 85.916 189.585 99.9994C189.585 114.083 174.335 124.416 153.168 130.666C158.335 152.166 157.001 170.583 144.751 177.583C132.585 184.583 116.001 176.583 100.001 161.333C84.0013 176.583 67.418 184.583 55.168 177.583C43.0013 170.583 41.668 152.166 46.8346 130.666C25.668 124.416 10.418 114.083 10.418 99.9994C10.418 85.916 25.668 75.5827 46.8346 69.3327C41.668 47.8327 43.0013 29.416 55.168 22.416C67.418 15.416 84.0013 23.416 100.001 38.666C116.001 23.416 132.585 15.416 144.751 22.416ZM142.335 99.9994C145.168 106.249 147.668 112.499 149.751 118.833C167.251 113.583 177.085 106.083 177.085 99.9994C177.085 93.916 167.251 86.416 149.751 81.166C147.668 87.4994 145.168 93.7494 142.335 99.9994ZM57.668 99.9994C54.8346 93.7494 52.3346 87.4994 50.2513 81.166C32.7513 86.416 22.918 93.916 22.918 99.9994C22.918 106.083 32.7513 113.583 50.2513 118.833C52.3346 112.499 54.8346 106.249 57.668 99.9994ZM132.668 118.833L130.168 123.083C132.751 122.666 135.251 122.249 137.501 121.749C136.918 119.416 136.001 116.999 135.085 114.583L132.668 118.833ZM108.585 152.499C121.835 164.999 133.335 169.833 138.501 166.666C143.835 163.749 145.418 151.499 141.168 133.666C134.751 134.999 128.001 135.999 121.168 136.666C117.168 142.249 112.918 147.583 108.585 152.499ZM67.3346 81.166L69.8346 76.916C67.2513 77.3327 64.7513 77.7494 62.5013 78.2494C63.0846 80.5827 64.0013 82.9994 64.918 85.416L67.3346 81.166ZM91.418 47.4994C78.168 34.9994 66.668 30.166 61.418 33.3327C56.168 36.2494 54.5846 48.4994 58.8346 66.3327C65.4439 64.9814 72.1198 63.98 78.8346 63.3327C82.8346 57.7494 87.0846 52.416 91.418 47.4994Z" fill="white"/>
</svg>
