<svg width="200" height="200" viewBox="0 0 200 200" fill="none" xmlns="http://www.w3.org/2000/svg">
<path d="M62.5156 0H83.999V8.98333H71.499V17.9667H83.999V26.95H62.5156V0ZM88.2906 0H109.782V7.81667H97.2823V9.375H109.782V27.3417H88.2906V19.1417H100.791V17.575H88.2906V0ZM114.082 0H135.557V7.81667H123.057V9.375H135.557V27.3417H114.082V19.1417H126.582V17.575H114.082V0Z" fill="white"/>
<path fill-rule="evenodd" clip-rule="evenodd" d="M99.925 200L42.0583 183.934L25 39.3086H175L157.95 183.917L99.925 200ZM58.725 104.775L60.3167 122.509H121.792L119.733 145.509L99.95 150.859H99.9333L80.1833 145.525L78.9167 131.384H61.1083L63.5917 159.234L99.925 169.317L136.317 159.234L140.75 109.534L141.183 104.775L144.383 68.8669H55.5333L57.15 86.6086H124.95L123.333 104.775H58.725Z" fill="white"/>
</svg>
