<svg width="200" height="200" viewBox="0 0 200 200" fill="none" xmlns="http://www.w3.org/2000/svg">
<path d="M50 25C43.3696 25 37.0107 27.6339 32.3223 32.3223C27.6339 37.0107 25 43.3696 25 50V150C25 156.63 27.6339 162.989 32.3223 167.678C37.0107 172.366 43.3696 175 50 175H150C156.63 175 162.989 172.366 167.678 167.678C172.366 162.989 175 156.63 175 150V50C175 43.3696 172.366 37.0107 167.678 32.3223C162.989 27.6339 156.63 25 150 25H50ZM111.117 133.792C117.117 138.625 123.106 141.008 129.083 140.942C132.75 140.942 135.561 140.269 137.517 138.925C138.427 138.334 139.168 137.516 139.666 136.552C140.165 135.587 140.403 134.51 140.358 133.425C140.371 132.242 140.124 131.071 139.634 129.994C139.145 128.916 138.425 127.96 137.525 127.192C135.569 125.486 131.869 123.775 126.425 122.058C119.886 120.169 114.844 117.725 111.3 114.725C107.822 111.725 106.05 107.539 105.983 102.167C105.983 97.0944 108.183 92.8472 112.583 89.425C116.861 86.0028 122.333 84.2917 129 84.2917C138.289 84.2917 145.742 86.5528 151.358 91.075L144.942 101.067C142.631 99.2703 139.981 97.9606 137.15 97.2167C134.606 96.3644 131.949 95.9009 129.267 95.8417C126.1 95.8417 123.564 96.4222 121.658 97.5833C119.769 98.75 118.825 100.278 118.825 102.167C118.825 104.244 119.983 106.017 122.3 107.483C124.633 108.894 128.606 110.453 134.217 112.158C141 114.175 145.828 116.864 148.7 120.225C151.572 123.586 153.008 127.864 153.008 133.058C153.008 138.375 150.961 142.958 146.867 146.808C142.833 150.597 136.967 152.583 129.267 152.767C119.183 152.767 110.75 149.742 103.967 143.692L111.117 133.792ZM65.0333 139.108C66.9889 140.331 69.3417 140.942 72.0917 140.942C74.9639 140.942 77.3472 140.117 79.2417 138.467C81.1306 136.756 82.0778 133.792 82.0833 129.575V85.3917H94.4583V131.958C94.275 139.169 92.1972 144.364 88.225 147.542C86.0515 149.379 83.5245 150.752 80.8 151.575C78.2735 152.344 75.6493 152.746 73.0083 152.767C68.425 152.767 64.3611 151.972 60.8167 150.383C57.0278 148.678 53.85 145.653 51.2833 141.308L59.9 134.25C61.4833 136.389 63.1944 138.008 65.0333 139.108Z" fill="white"/>
</svg>
