<svg width="38" height="38" viewBox="0 0 38 38" fill="none" xmlns="http://www.w3.org/2000/svg">
<g clip-path="url(#clip0_529_6)">
<path d="M6.96875 6.5751C8.13438 7.52198 8.57188 7.4501 10.7625 7.30323L31.4109 6.06416C31.8484 6.06416 31.4844 5.62666 31.3391 5.55479L27.9078 3.0751C27.2516 2.56573 26.375 1.98135 24.6969 2.12666L4.70469 3.58604C3.97656 3.65791 3.82969 4.02354 4.12031 4.31416L6.96875 6.5751ZM8.20781 11.3876V33.1126C8.20781 34.2798 8.79063 34.7173 10.1047 34.6439L32.7969 33.3314C34.1109 33.2595 34.2578 32.4564 34.2578 31.5079V9.92823C34.2578 8.98135 33.8938 8.47041 33.0891 8.54229L9.375 9.92823C8.5 10.0017 8.20781 10.4407 8.20781 11.3876ZM30.6094 12.5517C30.7547 13.2079 30.6094 13.8642 29.9531 13.9392L28.8594 14.1579V30.1954C27.9094 30.7064 27.0344 30.9985 26.3047 30.9985C25.1359 30.9985 24.8437 30.6329 23.9687 29.5407L16.8172 18.3126V29.1751L19.0797 29.6876C19.0797 29.6876 19.0797 31.0001 17.2547 31.0001L12.2203 31.2907C12.075 31.0001 12.2203 30.2704 12.7313 30.1251L14.0438 29.761V15.397L12.2234 15.2501C12.0766 14.5939 12.4422 13.647 13.4625 13.5735L18.8625 13.2095L26.3062 24.5829V14.5204L24.4078 14.3032C24.2625 13.5001 24.8453 12.9173 25.575 12.8454L30.6094 12.5517ZM3.02656 1.61729L23.8234 0.0860382C26.3766 -0.132712 27.0344 0.0126007 28.6391 1.17979L35.2781 5.84541C36.3719 6.64698 36.7375 6.86573 36.7375 7.74073V33.3314C36.7375 34.9345 36.1547 35.8845 34.1125 36.0282L9.95938 37.4876C8.42813 37.561 7.69687 37.3423 6.89375 36.3204L2.00469 29.9767C1.12969 28.8095 0.765625 27.936 0.765625 26.9142V4.16729C0.765625 2.85635 1.35 1.76104 3.02656 1.61729Z" fill="white"/>
</g>
<defs>
<clipPath id="clip0_529_6">
<rect width="37.5" height="37.5" fill="white"/>
</clipPath>
</defs>
</svg>
