<svg width="38" height="38" viewBox="0 0 38 38" fill="none" xmlns="http://www.w3.org/2000/svg">
<path d="M7.54167 16.2292C10.5417 22.125 15.375 26.9375 21.2708 29.9583L25.8542 25.375C26.4167 24.8125 27.25 24.625 27.9792 24.875C30.3125 25.6458 32.8333 26.0625 35.4167 26.0625C36.5625 26.0625 37.5 27 37.5 28.1458V35.4167C37.5 36.5625 36.5625 37.5 35.4167 37.5C15.8542 37.5 0 21.6458 0 2.08333C0 0.9375 0.9375 0 2.08333 0H9.375C10.5208 0 11.4583 0.9375 11.4583 2.08333C11.4583 4.6875 11.875 7.1875 12.6458 9.52083C12.875 10.25 12.7083 11.0625 12.125 11.6458L7.54167 16.2292Z" fill="white"/>
</svg>
