<svg width="45" height="41" viewBox="0 0 45 41" fill="none" xmlns="http://www.w3.org/2000/svg">
<path d="M22.3958 16.098C24.5417 16.098 26.2917 17.848 26.2917 20.0355C26.2917 22.1188 24.5417 23.8897 22.3958 23.8897C20.25 23.8897 18.5 22.1188 18.5 20.0355C18.5 17.848 20.25 16.098 22.3958 16.098ZM12.75 36.7022C14.0625 37.4938 16.9375 36.2855 20.25 33.1605C19.1667 31.9313 18.1042 30.598 17.1042 29.2022C15.4255 29.0403 13.7565 28.79 12.1042 28.4522C11.0417 32.9105 11.4375 35.973 12.75 36.7022ZM14.2292 24.7438L13.625 23.6813C13.3958 24.2855 13.1667 24.8897 13.0208 25.473C13.5833 25.598 14.2083 25.7022 14.8542 25.8063L14.2292 24.7438ZM27.8542 23.1605L29.5417 20.0355L27.8542 16.9105C27.2292 15.8063 26.5625 14.8272 25.9583 13.848C24.8333 13.7855 23.6458 13.7855 22.3958 13.7855C21.1458 13.7855 19.9583 13.7855 18.8333 13.848C18.2292 14.8272 17.5625 15.8063 16.9375 16.9105L15.25 20.0355L16.9375 23.1605C17.5625 24.2647 18.2292 25.2438 18.8333 26.223C19.9583 26.2855 21.1458 26.2855 22.3958 26.2855C23.6458 26.2855 24.8333 26.2855 25.9583 26.223C26.5625 25.2438 27.2292 24.2647 27.8542 23.1605ZM22.3958 9.16049C22 9.61882 21.5833 10.098 21.1667 10.6605H23.625C23.2083 10.098 22.7917 9.61882 22.3958 9.16049ZM22.3958 30.9105C22.7917 30.4522 23.2083 29.973 23.625 29.4105H21.1667C21.5833 29.973 22 30.4522 22.3958 30.9105ZM32.0208 3.36882C30.7292 2.57715 27.8542 3.78549 24.5417 6.91049C25.625 8.13965 26.6875 9.47299 27.6875 10.8688C29.3958 11.0355 31.0833 11.2855 32.6875 11.6188C33.75 7.16049 33.3542 4.09799 32.0208 3.36882ZM30.5625 15.3272L31.1667 16.3897C31.3958 15.7855 31.625 15.1813 31.7708 14.598C31.2083 14.473 30.5833 14.3688 29.9375 14.2647L30.5625 15.3272ZM33.5833 0.639652C36.6458 2.38965 36.9792 6.99382 35.6875 12.3688C40.9792 13.9313 44.7917 16.5147 44.7917 20.0355C44.7917 23.5563 40.9792 26.1397 35.6875 27.7022C36.9792 33.0772 36.6458 37.6813 33.5833 39.4313C30.5417 41.1813 26.3958 39.1813 22.3958 35.3688C18.3958 39.1813 14.25 41.1813 11.1875 39.4313C8.14583 37.6813 7.8125 33.0772 9.10417 27.7022C3.8125 26.1397 0 23.5563 0 20.0355C0 16.5147 3.8125 13.9313 9.10417 12.3688C7.8125 6.99382 8.14583 2.38965 11.1875 0.639652C14.25 -1.11035 18.3958 0.889652 22.3958 4.70215C26.3958 0.889652 30.5417 -1.11035 33.5833 0.639652ZM32.9792 20.0355C33.6875 21.598 34.3125 23.1605 34.8333 24.7438C39.2083 23.4313 41.6667 21.5563 41.6667 20.0355C41.6667 18.5147 39.2083 16.6397 34.8333 15.3272C34.3125 16.9105 33.6875 18.473 32.9792 20.0355ZM11.8125 20.0355C11.1042 18.473 10.4792 16.9105 9.95833 15.3272C5.58333 16.6397 3.125 18.5147 3.125 20.0355C3.125 21.5563 5.58333 23.4313 9.95833 24.7438C10.4792 23.1605 11.1042 21.598 11.8125 20.0355ZM30.5625 24.7438L29.9375 25.8063C30.5833 25.7022 31.2083 25.598 31.7708 25.473C31.625 24.8897 31.3958 24.2855 31.1667 23.6813L30.5625 24.7438ZM24.5417 33.1605C27.8542 36.2855 30.7292 37.4938 32.0208 36.7022C33.3542 35.973 33.75 32.9105 32.6875 28.4522C31.0833 28.7855 29.3958 29.0355 27.6875 29.2022C26.6875 30.598 25.625 31.9313 24.5417 33.1605ZM14.2292 15.3272L14.8542 14.2647C14.2083 14.3688 13.5833 14.473 13.0208 14.598C13.1667 15.1813 13.3958 15.7855 13.625 16.3897L14.2292 15.3272ZM20.25 6.91049C16.9375 3.78549 14.0625 2.57715 12.75 3.36882C11.4375 4.09799 11.0417 7.16049 12.1042 11.6188C13.7565 11.281 15.4255 11.0307 17.1042 10.8688C18.1042 9.47299 19.1667 8.13965 20.25 6.91049Z" fill="white"/>
</svg>
